<svg xmlns="http://www.w3.org/2000/svg" width="800" height="560" viewBox="0 0 800 560" role="img" aria-labelledby="title desc">
<title id="title">Hip-Hinge Drill</title><desc id="desc">8 slow reps</desc>
<rect width="800" height="560" rx="42" fill="#F5F0E6"/>
<rect x="24" y="24" width="752" height="512" rx="32" fill="none" stroke="#3E5B4F" stroke-width="4"/>
<path d="M24 95 H776" stroke="#3E5B4F" stroke-width="4"/>
<g opacity=".17"><path d="M530 70 l34 20 -34 20 -34-20z M600 70 l34 20 -34 20 -34-20z M670 70 l34 20 -34 20 -34-20z" fill="#3E5B4F"/></g>
<g transform="translate(40,85)">
    <circle cx="180" cy="105" r="32" fill="none" stroke="#1F2622" stroke-width="12"/>
    <path d="M180 140 L180 250" stroke="#1F2622" stroke-width="16" stroke-linecap="round"/>
    <path d="M180 175 L110 220" stroke="#1F2622" stroke-width="14" stroke-linecap="round"/>
    <path d="M180 175 L250 220" stroke="#1F2622" stroke-width="14" stroke-linecap="round"/>
    <path d="M180 250 L125 340" stroke="#1F2622" stroke-width="16" stroke-linecap="round"/>
    <path d="M180 250 L235 340" stroke="#1F2622" stroke-width="16" stroke-linecap="round"/>
    </g>
<circle cx="650" cy="240" r="82" fill="#3E5B4F" opacity=".12"/>
<text x="650" y="255" text-anchor="middle" font-family="Arial, sans-serif" font-size="70" fill="#3E5B4F">⌁</text>
<text x="430" y="385" font-family="Arial, sans-serif" font-weight="700" font-size="38" fill="#1F2622">Hip-Hinge Drill</text>
<text x="430" y="430" font-family="Arial, sans-serif" font-size="24" fill="#3E5B4F">8 slow reps</text>
<text x="430" y="480" font-family="Arial, sans-serif" font-size="18" fill="#87988D">Project Rebuild • Warmups</text>
</svg>